<svg
  xmlns="http://www.w3.org/2000/svg"
  viewBox="0 0 32 32"
  width="32"
  height="32"
  fill="currentColor"
>
  <path d="M16.04 2.003c-7.73 0-14 6.27-14 14 0 2.47.65 4.88 1.89 7.01L2 30l7.18-1.88A13.93 13.93 0 0 0 16.04 30c7.73 0 14-6.27 14-14s-6.27-13.997-14-13.997zm0 25.62c-2.15 0-4.26-.58-6.09-1.67l-.44-.26-4.26 1.12 1.14-4.15-.29-.43a11.61 11.61 0 1 1 9.94 5.39zm6.38-8.72c-.35-.18-2.06-1.02-2.38-1.14-.32-.12-.56-.18-.8.18s-.91 1.14-1.12 1.38c-.21.24-.41.27-.76.09-.35-.18-1.47-.54-2.8-1.72-1.03-.92-1.73-2.05-1.93-2.4-.2-.35-.02-.54.16-.71.16-.16.35-.41.53-.62.18-.21.24-.35.35-.59.12-.24.06-.44-.03-.62-.09-.18-.8-1.92-1.1-2.63-.29-.7-.58-.6-.8-.61h-.68c-.24 0-.62.09-.94.44-.32.35-1.24 1.21-1.24 2.96s1.27 3.44 1.45 3.68c.18.24 2.5 3.82 6.06 5.36.85.37 1.51.59 2.03.76.85.27 1.63.23 2.24.14.68-.1 2.06-.84 2.35-1.65.29-.81.29-1.5.2-1.65-.09-.15-.32-.24-.68-.41z"/>
</svg>
